<svg width="145" height="40" viewBox="0 0 145 40" fill="none" xmlns="http://www.w3.org/2000/svg">
<path d="M62.7793 24.4121C62.1413 24.7402 61.4714 24.9863 60.7695 25.1504C60.0677 25.3145 59.3294 25.3965 58.5547 25.3965C55.8021 25.3965 53.7012 24.4896 52.252 22.6758C50.8027 20.862 50.0781 18.2415 50.0781 14.8145C50.0781 11.3783 50.8027 8.75326 52.252 6.93945C53.7012 5.12565 55.8021 4.21875 58.5547 4.21875C59.3294 4.21875 60.0723 4.30078 60.7832 4.46484C61.4941 4.62891 62.1595 4.875 62.7793 5.20312V9.6875C62.0866 9.04948 61.4121 8.58464 60.7559 8.29297C60.1087 7.99219 59.4388 7.8418 58.7461 7.8418C57.2695 7.8418 56.153 8.42969 55.3965 9.60547C54.6491 10.7721 54.2754 12.5085 54.2754 14.8145C54.2754 17.1113 54.6491 18.8477 55.3965 20.0234C56.153 21.1901 57.2695 21.7734 58.7461 21.7734C59.4388 21.7734 60.1087 21.6276 60.7559 21.3359C61.4121 21.0352 62.0866 20.5658 62.7793 19.9277V24.4121Z" fill="#292930"/>
<path d="M72.453 12.5723C71.4959 12.5723 70.744 12.9961 70.1971 13.8438C69.6502 14.6823 69.3768 15.8535 69.3768 17.3574C69.3768 18.8613 69.6502 20.0371 70.1971 20.8848C70.744 21.7233 71.4959 22.1426 72.453 22.1426C73.4191 22.1426 74.1756 21.7233 74.7225 20.8848C75.2694 20.0371 75.5428 18.8613 75.5428 17.3574C75.5428 15.8535 75.2694 14.6823 74.7225 13.8438C74.1756 12.9961 73.4191 12.5723 72.453 12.5723ZM65.3709 17.3574C65.3709 14.8874 66.009 12.9323 67.285 11.4922C68.5702 10.043 70.2928 9.31836 72.453 9.31836C74.6222 9.31836 76.3449 10.043 77.6209 11.4922C78.9061 12.9323 79.5487 14.8874 79.5487 17.3574C79.5487 19.8275 78.9061 21.7871 77.6209 23.2363C76.3449 24.6764 74.6222 25.3965 72.453 25.3965C70.2928 25.3965 68.5702 24.6764 67.285 23.2363C66.009 21.7871 65.3709 19.8275 65.3709 17.3574Z" fill="#292930"/>
<path d="M85.3532 18.6152V6.80273H81.2927V3.72656H89.3591V18.6152C89.3591 19.8184 89.5459 20.6706 89.9196 21.1719C90.2933 21.6732 90.9268 21.9238 91.82 21.9238H95.0192V25H90.6989C88.794 25 87.4268 24.5078 86.5973 23.5234C85.7679 22.5391 85.3532 20.903 85.3532 18.6152Z" fill="#292930"/>
<path d="M101.384 18.6152V6.80273H97.3237V3.72656H105.39V18.6152C105.39 19.8184 105.577 20.6706 105.951 21.1719C106.324 21.6732 106.958 21.9238 107.851 21.9238H111.05V25H106.73C104.825 25 103.458 24.5078 102.628 23.5234C101.799 22.5391 101.384 20.903 101.384 18.6152Z" fill="#292930"/>
<path d="M121.695 17.8086C120.2 17.8086 119.156 18 118.564 18.3828C117.971 18.7656 117.675 19.4219 117.675 20.3516C117.675 21.0443 117.88 21.5957 118.29 22.0059C118.701 22.416 119.257 22.6211 119.958 22.6211C121.016 22.6211 121.836 22.2246 122.419 21.4316C123.003 20.6296 123.294 19.513 123.294 18.082V17.8086H121.695ZM127.273 16.2637V25H123.294V23.291C122.811 23.9655 122.191 24.485 121.435 24.8496C120.678 25.2142 119.844 25.3965 118.933 25.3965C117.192 25.3965 115.834 24.9362 114.859 24.0156C113.893 23.0951 113.41 21.8099 113.41 20.1602C113.41 18.3737 113.988 17.0566 115.146 16.209C116.303 15.3522 118.094 14.9238 120.519 14.9238H123.294V14.2539C123.294 13.6068 123.057 13.1191 122.583 12.791C122.119 12.4538 121.43 12.2852 120.519 12.2852C119.562 12.2852 118.632 12.4082 117.73 12.6543C116.837 12.8913 115.902 13.2741 114.927 13.8027V10.3848C115.811 10.0202 116.709 9.7513 117.62 9.57812C118.532 9.40495 119.498 9.31836 120.519 9.31836C123.007 9.31836 124.753 9.82422 125.755 10.8359C126.767 11.8477 127.273 13.6569 127.273 16.2637Z" fill="#292930"/>
<path d="M139.777 17.3848C139.777 15.9082 139.53 14.7507 139.038 13.9121C138.546 13.0736 137.867 12.6543 137.001 12.6543C136.135 12.6543 135.452 13.0736 134.95 13.9121C134.449 14.7507 134.198 15.9082 134.198 17.3848C134.198 18.8613 134.449 20.0189 134.95 20.8574C135.452 21.696 136.135 22.1152 137.001 22.1152C137.867 22.1152 138.546 21.696 139.038 20.8574C139.53 20.0189 139.777 18.8613 139.777 17.3848ZM134.198 11.8613C134.691 11.0137 135.26 10.3802 135.907 9.96094C136.564 9.53255 137.302 9.31836 138.122 9.31836C139.936 9.31836 141.331 10.0111 142.306 11.3965C143.29 12.7819 143.782 14.7689 143.782 17.3574C143.782 19.9095 143.299 21.8874 142.333 23.291C141.367 24.6947 140.009 25.3965 138.259 25.3965C137.338 25.3965 136.536 25.1732 135.853 24.7266C135.169 24.2799 134.618 23.6146 134.198 22.7305V25H130.206V3.72656H134.198V11.8613Z" fill="#292930"/>
<path d="M120.19 36.1701C120.19 36.5034 120.11 36.8134 119.95 37.1001C119.79 37.3868 119.547 37.6201 119.22 37.8001C118.893 37.9801 118.49 38.0701 118.01 38.0701C117.543 38.0701 117.127 37.9868 116.76 37.8201C116.4 37.6468 116.11 37.4134 115.89 37.1201C115.677 36.8201 115.553 36.4801 115.52 36.1001H116.49C116.51 36.3001 116.577 36.4968 116.69 36.6901C116.81 36.8768 116.977 37.0334 117.19 37.1601C117.41 37.2801 117.673 37.3401 117.98 37.3401C118.38 37.3401 118.687 37.2334 118.9 37.0201C119.113 36.8068 119.22 36.5334 119.22 36.2001C119.22 35.9134 119.143 35.6801 118.99 35.5001C118.843 35.3201 118.66 35.1801 118.44 35.0801C118.22 34.9734 117.92 34.8601 117.54 34.7401C117.093 34.5934 116.733 34.4568 116.46 34.3301C116.193 34.1968 115.963 34.0001 115.77 33.7401C115.583 33.4801 115.49 33.1368 115.49 32.7101C115.49 32.3434 115.577 32.0201 115.75 31.7401C115.93 31.4601 116.183 31.2434 116.51 31.0901C116.843 30.9368 117.233 30.8601 117.68 30.8601C118.373 30.8601 118.923 31.0301 119.33 31.3701C119.737 31.7034 119.973 32.1301 120.04 32.6501H119.06C119.007 32.3701 118.863 32.1234 118.63 31.9101C118.397 31.6968 118.08 31.5901 117.68 31.5901C117.313 31.5901 117.02 31.6868 116.8 31.8801C116.58 32.0668 116.47 32.3334 116.47 32.6801C116.47 32.9534 116.54 33.1768 116.68 33.3501C116.827 33.5168 117.007 33.6501 117.22 33.7501C117.433 33.8434 117.727 33.9501 118.1 34.0701C118.553 34.2168 118.917 34.3568 119.19 34.4901C119.47 34.6234 119.707 34.8268 119.9 35.1001C120.093 35.3668 120.19 35.7234 120.19 36.1701Z" fill="#292930"/>
<path d="M123.364 32.4401C123.897 32.4401 124.347 32.5734 124.714 32.8401C125.087 33.1068 125.347 33.4634 125.494 33.9101V32.5101H126.404V38.0001H125.494V36.6001C125.347 37.0468 125.087 37.4034 124.714 37.6701C124.347 37.9368 123.897 38.0701 123.364 38.0701C122.877 38.0701 122.444 37.9568 122.064 37.7301C121.684 37.5034 121.384 37.1801 121.164 36.7601C120.95 36.3334 120.844 35.8334 120.844 35.2601C120.844 34.6868 120.95 34.1868 121.164 33.7601C121.384 33.3334 121.684 33.0068 122.064 32.7801C122.444 32.5534 122.877 32.4401 123.364 32.4401ZM123.624 33.2501C123.064 33.2501 122.614 33.4301 122.274 33.7901C121.94 34.1434 121.774 34.6334 121.774 35.2601C121.774 35.8868 121.94 36.3801 122.274 36.7401C122.614 37.0934 123.064 37.2701 123.624 37.2701C123.984 37.2701 124.304 37.1868 124.584 37.0201C124.87 36.8534 125.094 36.6201 125.254 36.3201C125.414 36.0134 125.494 35.6601 125.494 35.2601C125.494 34.8601 125.414 34.5068 125.254 34.2001C125.094 33.8934 124.87 33.6601 124.584 33.5001C124.304 33.3334 123.984 33.2501 123.624 33.2501Z" fill="#292930"/>
<path d="M132.432 32.5101V38.0001H131.522V36.7101C131.382 37.1568 131.132 37.5001 130.772 37.7401C130.419 37.9734 130.005 38.0901 129.532 38.0901C128.899 38.0901 128.385 37.8868 127.992 37.4801C127.599 37.0668 127.402 36.4768 127.402 35.7101V32.5101H128.312V35.6201C128.312 36.1668 128.452 36.5901 128.732 36.8901C129.012 37.1834 129.392 37.3301 129.872 37.3301C130.372 37.3301 130.772 37.1701 131.072 36.8501C131.372 36.5234 131.522 36.0501 131.522 35.4301V32.5101H132.432Z" fill="#292930"/>
<path d="M136.02 32.4401C136.72 32.4401 137.3 32.6268 137.76 33.0001C138.22 33.3734 138.503 33.8734 138.61 34.5001H137.65C137.583 34.1068 137.4 33.8001 137.1 33.5801C136.806 33.3534 136.44 33.2401 136 33.2401C135.68 33.2401 135.386 33.3134 135.12 33.4601C134.86 33.6068 134.65 33.8334 134.49 34.1401C134.33 34.4401 134.25 34.8134 134.25 35.2601C134.25 35.7068 134.33 36.0834 134.49 36.3901C134.65 36.6901 134.86 36.9134 135.12 37.0601C135.386 37.2068 135.68 37.2801 136 37.2801C136.44 37.2801 136.806 37.1668 137.1 36.9401C137.4 36.7134 137.583 36.4034 137.65 36.0101H138.61C138.503 36.6434 138.22 37.1468 137.76 37.5201C137.3 37.8868 136.72 38.0701 136.02 38.0701C135.493 38.0701 135.026 37.9568 134.62 37.7301C134.213 37.5034 133.893 37.1801 133.66 36.7601C133.433 36.3334 133.32 35.8334 133.32 35.2601C133.32 34.6868 133.433 34.1868 133.66 33.7601C133.893 33.3334 134.213 33.0068 134.62 32.7801C135.026 32.5534 135.493 32.4401 136.02 32.4401Z" fill="#292930"/>
<path d="M144.551 34.9501C144.551 35.1434 144.537 35.3101 144.511 35.4501H140.121C140.141 36.0768 140.317 36.5468 140.651 36.8601C140.991 37.1734 141.404 37.3301 141.891 37.3301C142.331 37.3301 142.697 37.2201 142.991 37.0001C143.291 36.7734 143.474 36.4734 143.541 36.1001H144.511C144.444 36.4801 144.294 36.8201 144.061 37.1201C143.834 37.4201 143.537 37.6534 143.171 37.8201C142.804 37.9868 142.391 38.0701 141.931 38.0701C141.404 38.0701 140.937 37.9568 140.531 37.7301C140.124 37.5034 139.804 37.1801 139.571 36.7601C139.344 36.3334 139.231 35.8334 139.231 35.2601C139.231 34.6868 139.344 34.1868 139.571 33.7601C139.804 33.3334 140.124 33.0068 140.531 32.7801C140.937 32.5534 141.404 32.4401 141.931 32.4401C142.464 32.4401 142.927 32.5534 143.321 32.7801C143.721 33.0068 144.024 33.3101 144.231 33.6901C144.444 34.0701 144.551 34.4901 144.551 34.9501ZM143.631 35.0101C143.651 34.6034 143.584 34.2634 143.431 33.9901C143.277 33.7168 143.067 33.5134 142.801 33.3801C142.534 33.2468 142.244 33.1801 141.931 33.1801C141.431 33.1801 141.011 33.3368 140.671 33.6501C140.331 33.9568 140.147 34.4101 140.121 35.0101H143.631Z" fill="#292930"/>
<path d="M0 18.2857C0 11.8851 0 8.68481 1.24564 6.24011C2.34134 4.08968 4.08968 2.34134 6.24011 1.24564C8.68481 0 11.8851 0 18.2857 0H21.7143C28.1149 0 31.3152 0 33.7599 1.24564C35.9103 2.34134 37.6587 4.08968 38.7544 6.24011C40 8.68481 40 11.8851 40 18.2857V21.7143C40 28.1149 40 31.3152 38.7544 33.7599C37.6587 35.9103 35.9103 37.6587 33.7599 38.7544C31.3152 40 28.1149 40 21.7143 40H18.2857C11.8851 40 8.68481 40 6.24011 38.7544C4.08968 37.6587 2.34134 35.9103 1.24564 33.7599C0 31.3152 0 28.1149 0 21.7143V18.2857Z" fill="#2A7BE4"/>
<path d="M24.5333 15.6667V13.5C24.5333 12.7831 23.9502 12.2 23.2333 12.2H21.8987L21.4985 7.39736C21.4797 7.17266 21.292 7 21.0667 7H19.3333C19.108 7 18.9203 7.17266 18.9015 7.39736L18.5013 12.2H17.1667C16.4498 12.2 15.8667 12.7831 15.8667 13.5V15.6667C15.3887 15.6667 15 16.0554 15 16.5333V31.7C15 32.4169 15.5831 33 16.3 33H24.1C24.8169 33 25.4 32.4169 25.4 31.7V16.5333C25.4 16.0554 25.0113 15.6667 24.5333 15.6667ZM19.732 7.86667H20.668L21.029 12.2H19.371L19.732 7.86667ZM16.7333 13.5C16.7333 13.2611 16.9278 13.0667 17.1667 13.0667H18.9H21.5H23.2333C23.4722 13.0667 23.6667 13.2611 23.6667 13.5V15.6667H16.7333V13.5ZM24.5333 31.7C24.5333 31.9391 24.3389 32.1333 24.1 32.1333H16.3C16.0611 32.1333 15.8667 31.9391 15.8667 31.7V16.5333H16.3H24.1H24.5333V31.7Z" fill="white"/>
<path d="M15.2786 16.0999H25.0286V32.3499H15.2786V16.0999Z" fill="white"/>
<path d="M22.3445 20.2967C22.2855 20.1198 22.12 20.0005 21.9334 20.0005C21.7468 20.0005 21.5813 20.1198 21.5223 20.2967L21.1717 21.3487L20.625 18.6154C20.5864 18.4229 20.4231 18.2802 20.227 18.268C20.0325 18.2555 19.8512 18.3769 19.789 18.5633L18.7691 21.6229L18.394 21.0601C18.2945 20.9107 18.114 20.8379 17.9376 20.8777C17.7624 20.9175 17.6299 21.0614 17.6045 21.2391L17.2888 23.4489C17.2019 24.0558 17.2433 24.6626 17.412 25.2525L17.5743 25.8204C17.9071 26.9863 18.9866 27.8005 20.199 27.8005H20.4191C21.5126 27.8005 22.4975 27.1509 22.9281 26.1458L23.0474 25.8674C23.4662 24.8911 23.5117 23.798 23.1757 22.79L22.3445 20.2967Z" fill="#FE6350"/>
</svg>
