<svg width="74" height="74" viewBox="0 0 74 74" fill="none" xmlns="http://www.w3.org/2000/svg">
  <g filter="url(#filter0_d)">
  <rect x="4" y="4" width="66" height="66" rx="20" fill="#548DE6"/>
  <path d="M44.48 29.8498V26.2748C44.48 25.092 43.5178 24.1298 42.335 24.1298H40.1329L39.4726 16.2055C39.4415 15.8347 39.1318 15.5498 38.76 15.5498H35.9C35.5282 15.5498 35.2185 15.8347 35.1874 16.2055L34.5271 24.1298H32.325C31.1422 24.1298 30.18 25.092 30.18 26.2748V29.8498C29.3913 29.8498 28.75 30.4911 28.75 31.2798V56.3048C28.75 57.4876 29.7122 58.4498 30.895 58.4498H43.765C44.9478 58.4498 45.91 57.4876 45.91 56.3048V31.2798C45.91 30.4911 45.2687 29.8498 44.48 29.8498ZM36.5577 16.9798H38.1023L38.6979 24.1298H35.9621L36.5577 16.9798ZM31.61 26.2748C31.61 25.8806 31.9308 25.5598 32.325 25.5598H35.185H39.475H42.335C42.7292 25.5598 43.05 25.8806 43.05 26.2748V29.8498H31.61V26.2748ZM44.48 56.3048C44.48 56.6993 44.1592 57.0198 43.765 57.0198H30.895C30.5008 57.0198 30.18 56.6993 30.18 56.3048V31.2798H30.895H43.765H44.48V56.3048Z" fill="white"/>
  <rect x="29.2108" y="30.5645" width="16.0875" height="26.8125" fill="white"/>
  <path d="M40.8677 37.4894C40.7703 37.1976 40.4973 37.0007 40.1894 37.0007C39.8815 37.0007 39.6084 37.1976 39.511 37.4894L38.9326 39.2253L38.0304 34.7153C37.9669 34.3976 37.6974 34.1623 37.3737 34.1421C37.0529 34.1215 36.7537 34.3219 36.651 34.6294L34.9683 39.6777L34.3493 38.7491C34.1852 38.5026 33.8874 38.3825 33.5962 38.4481C33.3072 38.5138 33.0886 38.7512 33.0467 39.0444L32.5258 42.6907C32.3823 43.6919 32.4508 44.6932 32.729 45.6666L32.9968 46.6036C33.546 48.5273 35.3272 49.8707 37.3276 49.8707H37.6907C39.495 49.8707 41.1201 48.7989 41.8306 47.1406L42.0275 46.6811C42.7184 45.0703 42.7935 43.2667 42.2391 41.6035L40.8677 37.4894Z" fill="#FE6350"/>
  </g>
  <defs>
    <filter id="filter0_d" x="0" y="0" width="74" height="74" filterUnits="userSpaceOnUse" color-interpolation-filters="sRGB">
    <feFlood flood-opacity="0" result="BackgroundImageFix"/>
    <feColorMatrix in="SourceAlpha" type="matrix" values="0 0 0 0 0 0 0 0 0 0 0 0 0 0 0 0 0 0 127 0"/>
    <feOffset/>
    <feGaussianBlur stdDeviation="2"/>
    <feColorMatrix type="matrix" values="0 0 0 0 0.45 0 0 0 0 0.45 0 0 0 0 0.45 0 0 0 0.25 0"/>
    <feBlend mode="normal" in2="BackgroundImageFix" result="effect1_dropShadow"/>
    <feBlend mode="normal" in="SourceGraphic" in2="effect1_dropShadow" result="shape"/>
    </filter>
  </defs>
</svg>
